<svg version="1.1" xmlns="http://www.w3.org/2000/svg" viewBox="0 0 1283.5609426521755 868.1873007021698" width="1283.5609426521755" height="868.1873007021698" class="excalidraw-svg">
  <!-- svg-source:excalidraw -->
  
  <defs>
    <style class="style-fonts">
      @font-face {
        font-family: "Virgil";
        src: url("https://excalidraw.com/Virgil.woff2");
      }
      @font-face {
        font-family: "Cascadia";
        src: url("https://excalidraw.com/Cascadia.woff2");
      }
      @font-face {
        font-family: "Assistant";
        src: url("https://excalidraw.com/Assistant-Regular.woff2");
      }
    </style>
    
  </defs>
  <rect x="0" y="0" width="1283.5609426521755" height="868.1873007021698" fill="#ffffff"/><g stroke-linecap="round" transform="translate(428.0157266944178 10) rotate(0 12 11.5)"><path d="M24 11.5 C24 12.17, 23.94 12.84, 23.82 13.5 C23.7 14.15, 23.51 14.81, 23.28 15.43 C23.04 16.06, 22.74 16.67, 22.39 17.25 C22.05 17.83, 21.64 18.38, 21.19 18.89 C20.75 19.4, 20.25 19.88, 19.71 20.31 C19.18 20.74, 18.6 21.13, 18 21.46 C17.4 21.79, 16.76 22.08, 16.1 22.31 C15.45 22.53, 14.77 22.71, 14.08 22.83 C13.4 22.94, 12.69 23, 12 23 C11.31 23, 10.6 22.94, 9.92 22.83 C9.23 22.71, 8.55 22.53, 7.9 22.31 C7.24 22.08, 6.6 21.79, 6 21.46 C5.4 21.13, 4.82 20.74, 4.29 20.31 C3.75 19.88, 3.25 19.4, 2.81 18.89 C2.36 18.38, 1.95 17.83, 1.61 17.25 C1.26 16.67, 0.96 16.06, 0.72 15.43 C0.49 14.81, 0.3 14.15, 0.18 13.5 C0.06 12.84, 0 12.17, 0 11.5 C0 10.83, 0.06 10.16, 0.18 9.5 C0.3 8.85, 0.49 8.19, 0.72 7.57 C0.96 6.94, 1.26 6.33, 1.61 5.75 C1.95 5.17, 2.36 4.62, 2.81 4.11 C3.25 3.6, 3.75 3.12, 4.29 2.69 C4.82 2.26, 5.4 1.87, 6 1.54 C6.6 1.21, 7.24 0.92, 7.9 0.69 C8.55 0.47, 9.23 0.29, 9.92 0.17 C10.6 0.06, 11.31 0, 12 0 C12.69 0, 13.4 0.06, 14.08 0.17 C14.77 0.29, 15.45 0.47, 16.1 0.69 C16.76 0.92, 17.4 1.21, 18 1.54 C18.6 1.87, 19.18 2.26, 19.71 2.69 C20.25 3.12, 20.75 3.6, 21.19 4.11 C21.64 4.62, 22.05 5.17, 22.39 5.75 C22.74 6.33, 23.04 6.94, 23.28 7.57 C23.51 8.19, 23.7 8.85, 23.82 9.5 C23.94 10.16, 23.97 11.17, 24 11.5 C24.03 11.83, 24.03 11.17, 24 11.5" stroke="none" stroke-width="0" fill="#1e1e1e"/><path d="M24 11.5 C24 12.17, 23.94 12.84, 23.82 13.5 C23.7 14.15, 23.51 14.81, 23.28 15.43 C23.04 16.06, 22.74 16.67, 22.39 17.25 C22.05 17.83, 21.64 18.38, 21.19 18.89 C20.75 19.4, 20.25 19.88, 19.71 20.31 C19.18 20.74, 18.6 21.13, 18 21.46 C17.4 21.79, 16.76 22.08, 16.1 22.31 C15.45 22.53, 14.77 22.71, 14.08 22.83 C13.4 22.94, 12.69 23, 12 23 C11.31 23, 10.6 22.94, 9.92 22.83 C9.23 22.71, 8.55 22.53, 7.9 22.31 C7.24 22.08, 6.6 21.79, 6 21.46 C5.4 21.13, 4.82 20.74, 4.29 20.31 C3.75 19.88, 3.25 19.4, 2.81 18.89 C2.36 18.38, 1.95 17.83, 1.61 17.25 C1.26 16.67, 0.96 16.06, 0.72 15.43 C0.49 14.81, 0.3 14.15, 0.18 13.5 C0.06 12.84, 0 12.17, 0 11.5 C0 10.83, 0.06 10.16, 0.18 9.5 C0.3 8.85, 0.49 8.19, 0.72 7.57 C0.96 6.94, 1.26 6.33, 1.61 5.75 C1.95 5.17, 2.36 4.62, 2.81 4.11 C3.25 3.6, 3.75 3.12, 4.29 2.69 C4.82 2.26, 5.4 1.87, 6 1.54 C6.6 1.21, 7.24 0.92, 7.9 0.69 C8.55 0.47, 9.23 0.29, 9.92 0.17 C10.6 0.06, 11.31 0, 12 0 C12.69 0, 13.4 0.06, 14.08 0.17 C14.77 0.29, 15.45 0.47, 16.1 0.69 C16.76 0.92, 17.4 1.21, 18 1.54 C18.6 1.87, 19.18 2.26, 19.71 2.69 C20.25 3.12, 20.75 3.6, 21.19 4.11 C21.64 4.62, 22.05 5.17, 22.39 5.75 C22.74 6.33, 23.04 6.94, 23.28 7.57 C23.51 8.19, 23.7 8.85, 23.82 9.5 C23.94 10.16, 23.97 11.17, 24 11.5 C24.03 11.83, 24.03 11.17, 24 11.5" stroke="#1e1e1e" stroke-width="2" fill="none"/></g><g stroke-linecap="round"><g transform="translate(439.13945204652583 36.007462788731914) rotate(0 0.8367932019076534 39.2015190133921)"><path d="M0 0 C0.28 13.07, 1.39 65.34, 1.67 78.4 M0 0 C0.28 13.07, 1.39 65.34, 1.67 78.4" stroke="#1e1e1e" stroke-width="2" fill="none"/></g><g transform="translate(439.13945204652583 36.007462788731914) rotate(0 0.8367932019076534 39.2015190133921)"><path d="M-7.38 55.1 C-4.8 61.74, -2.21 68.39, 1.67 78.4 M-7.38 55.1 C-4.61 62.21, -1.85 69.33, 1.67 78.4" stroke="#1e1e1e" stroke-width="2" fill="none"/></g><g transform="translate(439.13945204652583 36.007462788731914) rotate(0 0.8367932019076534 39.2015190133921)"><path d="M9.72 54.73 C7.43 61.48, 5.13 68.23, 1.67 78.4 M9.72 54.73 C7.26 61.96, 4.81 69.19, 1.67 78.4" stroke="#1e1e1e" stroke-width="2" fill="none"/></g></g><mask/><g stroke-linecap="round" transform="translate(357.0157266944178 122.2693171875793) rotate(0 83.5 42)"><path d="M21 0 C69.22 0, 117.44 0, 146 0 M21 0 C66.67 0, 112.35 0, 146 0 M146 0 C160 0, 167 7, 167 21 M146 0 C160 0, 167 7, 167 21 M167 21 C167 32.08, 167 43.15, 167 63 M167 21 C167 35.87, 167 50.73, 167 63 M167 63 C167 77, 160 84, 146 84 M167 63 C167 77, 160 84, 146 84 M146 84 C117.86 84, 89.72 84, 21 84 M146 84 C97.92 84, 49.83 84, 21 84 M21 84 C7 84, 0 77, 0 63 M21 84 C7 84, 0 77, 0 63 M0 63 C0 48.05, 0 33.11, 0 21 M0 63 C0 53.38, 0 43.76, 0 21 M0 21 C0 7, 7 0, 21 0 M0 21 C0 7, 7 0, 21 0" stroke="#1e1e1e" stroke-width="2" fill="none"/></g><g transform="translate(369.9297891944178 141.2693171875793) rotate(0 70.5859375 23)"><text x="70.5859375" y="0" font-family="Helvetica, Segoe UI Emoji" font-size="20px" fill="#1e1e1e" text-anchor="middle" style="white-space: pre;" direction="ltr" dominant-baseline="text-before-edge">Select the</text><text x="70.5859375" y="23" font-family="Helvetica, Segoe UI Emoji" font-size="20px" fill="#1e1e1e" text-anchor="middle" style="white-space: pre;" direction="ltr" dominant-baseline="text-before-edge">number of disks</text></g><g stroke-linecap="round" transform="translate(359.5157266944178 288.7693171875793) rotate(0 84 79)"><path d="M106.25 20 C119.65 33.24, 133.05 46.47, 146.75 60 M106.25 20 C115.38 29.02, 124.51 38.03, 146.75 60 M146.75 60 C168 80, 168 80, 146.75 100 M146.75 60 C168 80, 168 80, 146.75 100 M146.75 100 C136.23 109.87, 125.71 119.74, 106.25 138 M146.75 100 C133.4 112.53, 120.04 125.06, 106.25 138 M106.25 138 C85 158, 85 158, 63.75 138 M106.25 138 C85 158, 85 158, 63.75 138 M63.75 138 C54.98 130.16, 46.21 122.32, 21.25 100 M63.75 138 C49.41 125.18, 35.07 112.36, 21.25 100 M21.25 100 C0 80, 0 80, 21.25 60 M21.25 100 C0 80, 0 80, 21.25 60 M21.25 60 C36.93 45.25, 52.6 30.49, 63.75 20 M21.25 60 C33.82 48.17, 46.39 36.34, 63.75 20 M63.75 20 C85 0, 85 0, 106.25 20 M63.75 20 C85 0, 85 0, 106.25 20" stroke="#1e1e1e" stroke-width="2" fill="none"/></g><g transform="translate(408.4913126319178 333.2693171875793) rotate(0 35.0244140625 34.5)"><text x="35.0244140625" y="0" font-family="Helvetica, Segoe UI Emoji" font-size="20px" fill="#1e1e1e" text-anchor="middle" style="white-space: pre;" direction="ltr" dominant-baseline="text-before-edge">Is it  the</text><text x="35.0244140625" y="23" font-family="Helvetica, Segoe UI Emoji" font-size="20px" fill="#1e1e1e" text-anchor="middle" style="white-space: pre;" direction="ltr" dominant-baseline="text-before-edge">last one</text><text x="35.0244140625" y="46" font-family="Helvetica, Segoe UI Emoji" font-size="20px" fill="#1e1e1e" text-anchor="middle" style="white-space: pre;" direction="ltr" dominant-baseline="text-before-edge">?</text></g><g stroke-linecap="round"><g transform="translate(442.8000264388637 210.2693171875793) rotate(0 -0.5551591010952457 39.42227880713212)"><path d="M0 0 C-0.19 13.14, -0.93 65.7, -1.11 78.84 M0 0 C-0.19 13.14, -0.93 65.7, -1.11 78.84" stroke="#1e1e1e" stroke-width="2" fill="none"/></g><g transform="translate(442.8000264388637 210.2693171875793) rotate(0 -0.5551591010952457 39.42227880713212)"><path d="M-9.33 55.23 C-6.96 62.04, -4.59 68.84, -1.11 78.84 M-9.33 55.23 C-7.59 60.24, -5.84 65.24, -1.11 78.84" stroke="#1e1e1e" stroke-width="2" fill="none"/></g><g transform="translate(442.8000264388637 210.2693171875793) rotate(0 -0.5551591010952457 39.42227880713212)"><path d="M7.77 55.47 C5.21 62.21, 2.65 68.94, -1.11 78.84 M7.77 55.47 C5.89 60.43, 4.01 65.38, -1.11 78.84" stroke="#1e1e1e" stroke-width="2" fill="none"/></g></g><mask/><g stroke-linecap="round" transform="translate(10 479.469192078193) rotate(0 125.662401570354 41.887467190118)"><path d="M20.94 0 C98.46 0, 175.97 0, 230.38 0 M20.94 0 C80.6 0, 140.26 0, 230.38 0 M230.38 0 C244.34 0, 251.32 6.98, 251.32 20.94 M230.38 0 C244.34 0, 251.32 6.98, 251.32 20.94 M251.32 20.94 C251.32 32.87, 251.32 44.8, 251.32 62.83 M251.32 20.94 C251.32 35.55, 251.32 50.16, 251.32 62.83 M251.32 62.83 C251.32 76.79, 244.34 83.77, 230.38 83.77 M251.32 62.83 C251.32 76.79, 244.34 83.77, 230.38 83.77 M230.38 83.77 C167.94 83.77, 105.51 83.77, 20.94 83.77 M230.38 83.77 C171.06 83.77, 111.74 83.77, 20.94 83.77 M20.94 83.77 C6.98 83.77, 0 76.79, 0 62.83 M20.94 83.77 C6.98 83.77, 0 76.79, 0 62.83 M0 62.83 C0 47.88, 0 32.93, 0 20.94 M0 62.83 C0 48.98, 0 35.13, 0 20.94 M0 20.94 C0 6.98, 6.98 0, 20.94 0 M0 20.94 C0 6.98, 6.98 0, 20.94 0" stroke="#1e1e1e" stroke-width="2" fill="none"/></g><g transform="translate(46.17021407035401 498.356659268311) rotate(0 89.4921875 23)"><text x="89.4921875" y="0" font-family="Helvetica, Segoe UI Emoji" font-size="20px" fill="#1e1e1e" text-anchor="middle" style="white-space: pre;" direction="ltr" dominant-baseline="text-before-edge">Move the disk to the</text><text x="89.4921875" y="23" font-family="Helvetica, Segoe UI Emoji" font-size="20px" fill="#1e1e1e" text-anchor="middle" style="white-space: pre;" direction="ltr" dominant-baseline="text-before-edge">destination column</text></g><g stroke-linecap="round" transform="translate(119.85445000761592 632.9804264635064) rotate(0 12 11.5)"><path d="M24 11.5 C24 12.17, 23.94 12.84, 23.82 13.5 C23.7 14.15, 23.51 14.81, 23.28 15.43 C23.04 16.06, 22.74 16.67, 22.39 17.25 C22.05 17.83, 21.64 18.38, 21.19 18.89 C20.75 19.4, 20.25 19.88, 19.71 20.31 C19.18 20.74, 18.6 21.13, 18 21.46 C17.4 21.79, 16.76 22.08, 16.1 22.31 C15.45 22.53, 14.77 22.71, 14.08 22.83 C13.4 22.94, 12.69 23, 12 23 C11.31 23, 10.6 22.94, 9.92 22.83 C9.23 22.71, 8.55 22.53, 7.9 22.31 C7.24 22.08, 6.6 21.79, 6 21.46 C5.4 21.13, 4.82 20.74, 4.29 20.31 C3.75 19.88, 3.25 19.4, 2.81 18.89 C2.36 18.38, 1.95 17.83, 1.61 17.25 C1.26 16.67, 0.96 16.06, 0.72 15.43 C0.49 14.81, 0.3 14.15, 0.18 13.5 C0.06 12.84, 0 12.17, 0 11.5 C0 10.83, 0.06 10.16, 0.18 9.5 C0.3 8.85, 0.49 8.19, 0.72 7.57 C0.96 6.94, 1.26 6.33, 1.61 5.75 C1.95 5.17, 2.36 4.62, 2.81 4.11 C3.25 3.6, 3.75 3.12, 4.29 2.69 C4.82 2.26, 5.4 1.87, 6 1.54 C6.6 1.21, 7.24 0.92, 7.9 0.69 C8.55 0.47, 9.23 0.29, 9.92 0.17 C10.6 0.06, 11.31 0, 12 0 C12.69 0, 13.4 0.06, 14.08 0.17 C14.77 0.29, 15.45 0.47, 16.1 0.69 C16.76 0.92, 17.4 1.21, 18 1.54 C18.6 1.87, 19.18 2.26, 19.71 2.69 C20.25 3.12, 20.75 3.6, 21.19 4.11 C21.64 4.62, 22.05 5.17, 22.39 5.75 C22.74 6.33, 23.04 6.94, 23.28 7.57 C23.51 8.19, 23.7 8.85, 23.82 9.5 C23.94 10.16, 23.97 11.17, 24 11.5 C24.03 11.83, 24.03 11.17, 24 11.5" stroke="none" stroke-width="0" fill="#1e1e1e"/><path d="M24 11.5 C24 12.17, 23.94 12.84, 23.82 13.5 C23.7 14.15, 23.51 14.81, 23.28 15.43 C23.04 16.06, 22.74 16.67, 22.39 17.25 C22.05 17.83, 21.64 18.38, 21.19 18.89 C20.75 19.4, 20.25 19.88, 19.71 20.31 C19.18 20.74, 18.6 21.13, 18 21.46 C17.4 21.79, 16.76 22.08, 16.1 22.31 C15.45 22.53, 14.77 22.71, 14.08 22.83 C13.4 22.94, 12.69 23, 12 23 C11.31 23, 10.6 22.94, 9.92 22.83 C9.23 22.71, 8.55 22.53, 7.9 22.31 C7.24 22.08, 6.6 21.79, 6 21.46 C5.4 21.13, 4.82 20.74, 4.29 20.31 C3.75 19.88, 3.25 19.4, 2.81 18.89 C2.36 18.38, 1.95 17.83, 1.61 17.25 C1.26 16.67, 0.96 16.06, 0.72 15.43 C0.49 14.81, 0.3 14.15, 0.18 13.5 C0.06 12.84, 0 12.17, 0 11.5 C0 10.83, 0.06 10.16, 0.18 9.5 C0.3 8.85, 0.49 8.19, 0.72 7.57 C0.96 6.94, 1.26 6.33, 1.61 5.75 C1.95 5.17, 2.36 4.62, 2.81 4.11 C3.25 3.6, 3.75 3.12, 4.29 2.69 C4.82 2.26, 5.4 1.87, 6 1.54 C6.6 1.21, 7.24 0.92, 7.9 0.69 C8.55 0.47, 9.23 0.29, 9.92 0.17 C10.6 0.06, 11.31 0, 12 0 C12.69 0, 13.4 0.06, 14.08 0.17 C14.77 0.29, 15.45 0.47, 16.1 0.69 C16.76 0.92, 17.4 1.21, 18 1.54 C18.6 1.87, 19.18 2.26, 19.71 2.69 C20.25 3.12, 20.75 3.6, 21.19 4.11 C21.64 4.62, 22.05 5.17, 22.39 5.75 C22.74 6.33, 23.04 6.94, 23.28 7.57 C23.51 8.19, 23.7 8.85, 23.82 9.5 C23.94 10.16, 23.97 11.17, 24 11.5 C24.03 11.83, 24.03 11.17, 24 11.5" stroke="#1e1e1e" stroke-width="2" fill="none"/></g><g stroke-linecap="round"><g transform="translate(134.1531544807795 568.3213952087465) rotate(0 -0.4630640921361078 27.928185906152166)"><path d="M0 0 C-0.15 9.31, -0.77 46.55, -0.93 55.86 M0 0 C-0.15 9.31, -0.77 46.55, -0.93 55.86" stroke="#1e1e1e" stroke-width="2" fill="none"/></g><g transform="translate(134.1531544807795 568.3213952087465) rotate(0 -0.4630640921361078 27.928185906152166)"><path d="M-9.09 32.23 C-7.37 37.18, -5.66 42.14, -0.93 55.86 M-9.09 32.23 C-6.53 39.63, -3.97 47.03, -0.93 55.86" stroke="#1e1e1e" stroke-width="2" fill="none"/></g><g transform="translate(134.1531544807795 568.3213952087465) rotate(0 -0.4630640921361078 27.928185906152166)"><path d="M8.01 32.51 C6.14 37.41, 4.26 42.3, -0.93 55.86 M8.01 32.51 C5.21 39.82, 2.41 47.14, -0.93 55.86" stroke="#1e1e1e" stroke-width="2" fill="none"/></g></g><mask/><g transform="translate(109.82204278244046 669.3200272573658) rotate(0 17.79296875 11.5)"><text x="0" y="0" font-family="Helvetica, Segoe UI Emoji" font-size="20px" fill="#1e1e1e" text-anchor="start" style="white-space: pre;" direction="ltr" dominant-baseline="text-before-edge">End</text></g><g mask="url(#mask-kj344SLDoJH_77jUDdLsB)" stroke-linecap="round"><g transform="translate(366.06751912974863 360.23474312859406) rotate(0 -116.8555946948079 53.27063853690285)"><path d="M0 0 C-34.17 1.89, -166.07 -6.41, -205.02 11.34 C-243.97 29.1, -228.93 90.67, -233.71 106.54 M0 0 C-34.17 1.89, -166.07 -6.41, -205.02 11.34 C-243.97 29.1, -228.93 90.67, -233.71 106.54" stroke="#1e1e1e" stroke-width="2" fill="none"/></g><g transform="translate(366.06751912974863 360.23474312859406) rotate(0 -116.8555946948079 53.27063853690285)"><path d="M-241.34 82.73 C-238.97 90.14, -236.59 97.54, -233.71 106.54 M-241.34 82.73 C-239.03 89.95, -236.71 97.17, -233.71 106.54" stroke="#1e1e1e" stroke-width="2" fill="none"/></g><g transform="translate(366.06751912974863 360.23474312859406) rotate(0 -116.8555946948079 53.27063853690285)"><path d="M-224.25 83.4 C-227.19 90.6, -230.14 97.8, -233.71 106.54 M-224.25 83.4 C-227.12 90.42, -229.99 97.43, -233.71 106.54" stroke="#1e1e1e" stroke-width="2" fill="none"/></g></g><mask id="mask-kj344SLDoJH_77jUDdLsB"><rect x="0" y="0" fill="#fff" width="699.7787085193645" height="566.7760202023998"/><rect x="144.73526875944054" y="360.0772311339498" fill="#000" width="32.626953125" height="23" opacity="1"/></mask><g transform="translate(144.73526875944054 360.0772311339498) rotate(0 104.47665567550018 53.25913830861888)"><text x="16.3134765625" y="0" font-family="Helvetica, Segoe UI Emoji" font-size="20px" fill="#1e1e1e" text-anchor="middle" style="white-space: pre;" direction="ltr" dominant-baseline="text-before-edge">Yes</text></g><g stroke-linecap="round" transform="translate(310.82817345630167 544.2043686447391) rotate(0 135.81693907098872 43.156784377697335)"><path d="M21.58 0 C112.54 0, 203.51 0, 250.06 0 M21.58 0 C90.73 0, 159.89 0, 250.06 0 M250.06 0 C264.44 0, 271.63 7.19, 271.63 21.58 M250.06 0 C264.44 0, 271.63 7.19, 271.63 21.58 M271.63 21.58 C271.63 30.56, 271.63 39.54, 271.63 64.74 M271.63 21.58 C271.63 32.75, 271.63 43.92, 271.63 64.74 M271.63 64.74 C271.63 79.12, 264.44 86.31, 250.06 86.31 M271.63 64.74 C271.63 79.12, 264.44 86.31, 250.06 86.31 M250.06 86.31 C158.7 86.31, 67.34 86.31, 21.58 86.31 M250.06 86.31 C172.66 86.31, 95.27 86.31, 21.58 86.31 M21.58 86.31 C7.19 86.31, 0 79.12, 0 64.74 M21.58 86.31 C7.19 86.31, 0 79.12, 0 64.74 M0 64.74 C0 53.57, 0 42.4, 0 21.58 M0 64.74 C0 50.62, 0 36.5, 0 21.58 M0 21.58 C0 7.19, 7.19 0, 21.58 0 M0 21.58 C0 7.19, 7.19 0, 21.58 0" stroke="#1e1e1e" stroke-width="2" fill="none"/></g><g transform="translate(327.1382765897904 575.8611530224365) rotate(0 119.5068359375 11.5)"><text x="119.5068359375" y="0" font-family="Helvetica, Segoe UI Emoji" font-size="20px" fill="#1e1e1e" text-anchor="middle" style="white-space: pre;" direction="ltr" dominant-baseline="text-before-edge">move the disk to 2nd tower</text></g><g mask="url(#mask-PauLoxYTvXLOOaA2Z1RHG)" stroke-linecap="round"><g transform="translate(444.9236922909224 448.16145454173744) rotate(0 0.36397454491658365 45.48282267634216)"><path d="M0 0 C0.12 15.16, 0.61 75.8, 0.73 90.97 M0 0 C0.12 15.16, 0.61 75.8, 0.73 90.97" stroke="#1e1e1e" stroke-width="2" fill="none"/></g><g transform="translate(444.9236922909224 448.16145454173744) rotate(0 0.36397454491658365 45.48282267634216)"><path d="M-8.01 67.54 C-5.47 74.35, -2.93 81.17, 0.73 90.97 M-8.01 67.54 C-5.76 73.58, -3.51 79.61, 0.73 90.97" stroke="#1e1e1e" stroke-width="2" fill="none"/></g><g transform="translate(444.9236922909224 448.16145454173744) rotate(0 0.36397454491658365 45.48282267634216)"><path d="M9.09 67.41 C6.66 74.26, 4.23 81.11, 0.73 90.97 M9.09 67.41 C6.94 73.48, 4.78 79.55, 0.73 90.97" stroke="#1e1e1e" stroke-width="2" fill="none"/></g></g><mask id="mask-PauLoxYTvXLOOaA2Z1RHG"><rect x="0" y="0" fill="#fff" width="545.6516413807556" height="639.1270998944217"/><rect x="432.504463710839" y="482.14427721807965" fill="#000" width="25.56640625" height="23" opacity="1"/></mask><g transform="translate(432.50446371083905 482.14427721807954) rotate(0 12.783203125 11.499999999999993)"><text x="12.783203125" y="0" font-family="Helvetica, Segoe UI Emoji" font-size="20px" fill="#1e1e1e" text-anchor="middle" style="white-space: pre;" direction="ltr" dominant-baseline="text-before-edge">No</text></g><g stroke-linecap="round" transform="translate(307.6833450952694 740.6689242308832) rotate(0 148.8843082213977 43.39341646653804)"><path d="M21.7 0 C111.7 0, 201.7 0, 276.07 0 M21.7 0 C90.76 0, 159.82 0, 276.07 0 M276.07 0 C290.54 0, 297.77 7.23, 297.77 21.7 M276.07 0 C290.54 0, 297.77 7.23, 297.77 21.7 M297.77 21.7 C297.77 31.35, 297.77 41, 297.77 65.09 M297.77 21.7 C297.77 32.76, 297.77 43.83, 297.77 65.09 M297.77 65.09 C297.77 79.55, 290.54 86.79, 276.07 86.79 M297.77 65.09 C297.77 79.55, 290.54 86.79, 276.07 86.79 M276.07 86.79 C224.44 86.79, 172.81 86.79, 21.7 86.79 M276.07 86.79 C204.25 86.79, 132.43 86.79, 21.7 86.79 M21.7 86.79 C7.23 86.79, 0 79.55, 0 65.09 M21.7 86.79 C7.23 86.79, 0 79.55, 0 65.09 M0 65.09 C0 54.34, 0 43.59, 0 21.7 M0 65.09 C0 53.03, 0 40.98, 0 21.7 M0 21.7 C0 7.23, 7.23 0, 21.7 0 M0 21.7 C0 7.23, 7.23 0, 21.7 0" stroke="#1e1e1e" stroke-width="2" fill="none"/></g><g transform="translate(319.2776142541671 772.5623406974214) rotate(0 137.2900390625 11.5)"><text x="137.2900390625" y="0" font-family="Helvetica, Segoe UI Emoji" font-size="20px" fill="#1e1e1e" text-anchor="middle" style="white-space: pre;" direction="ltr" dominant-baseline="text-before-edge">decrement the number of disks</text></g><g stroke-linecap="round" transform="translate(739.9153685764974 700.1873007021698) rotate(0 92.2297858815848 79)"><path d="M116.25 20 C127.9 30.36, 139.54 40.72, 161.21 60 M116.25 20 C130.16 32.38, 144.08 44.76, 161.21 60 M161.21 60 C184.46 80, 184.46 80, 161.21 100 M161.21 60 C184.46 80, 184.46 80, 161.21 100 M161.21 100 C149.12 110.22, 137.02 120.44, 116.25 138 M161.21 100 C147.35 111.72, 133.48 123.44, 116.25 138 M116.25 138 C93 158, 93 158, 69.75 138 M116.25 138 C93 158, 93 158, 69.75 138 M69.75 138 C56.71 127.35, 43.68 116.69, 23.25 100 M69.75 138 C52.25 123.7, 34.74 109.39, 23.25 100 M23.25 100 C0 80, 0 80, 23.25 60 M23.25 100 C0 80, 0 80, 23.25 60 M23.25 60 C33.85 50.88, 44.46 41.76, 69.75 20 M23.25 60 C39.76 45.8, 56.28 31.59, 69.75 20 M69.75 20 C93 0, 93 0, 116.25 20 M69.75 20 C93 0, 93 0, 116.25 20" stroke="#1e1e1e" stroke-width="2" fill="none"/></g><g transform="translate(792.0253787047898 744.6873007021698) rotate(0 40.0048828125 34.5)"><text x="40.0048828125" y="0" font-family="Helvetica, Segoe UI Emoji" font-size="20px" fill="#1e1e1e" text-anchor="middle" style="white-space: pre;" direction="ltr" dominant-baseline="text-before-edge">Is it</text><text x="40.0048828125" y="23" font-family="Helvetica, Segoe UI Emoji" font-size="20px" fill="#1e1e1e" text-anchor="middle" style="white-space: pre;" direction="ltr" dominant-baseline="text-before-edge">recursivit</text><text x="40.0048828125" y="46" font-family="Helvetica, Segoe UI Emoji" font-size="20px" fill="#1e1e1e" text-anchor="middle" style="white-space: pre;" direction="ltr" dominant-baseline="text-before-edge">y end ?</text></g><g stroke-linecap="round" transform="translate(975.7923262093802 528.1908160154212) rotate(0 148.8843082213977 43.39341646653804)"><path d="M21.7 0 C85.86 0, 150.03 0, 276.07 0 M21.7 0 C92.32 0, 162.94 0, 276.07 0 M276.07 0 C290.54 0, 297.77 7.23, 297.77 21.7 M276.07 0 C290.54 0, 297.77 7.23, 297.77 21.7 M297.77 21.7 C297.77 35.8, 297.77 49.9, 297.77 65.09 M297.77 21.7 C297.77 36.51, 297.77 51.33, 297.77 65.09 M297.77 65.09 C297.77 79.55, 290.54 86.79, 276.07 86.79 M297.77 65.09 C297.77 79.55, 290.54 86.79, 276.07 86.79 M276.07 86.79 C208.44 86.79, 140.81 86.79, 21.7 86.79 M276.07 86.79 C176.16 86.79, 76.24 86.79, 21.7 86.79 M21.7 86.79 C7.23 86.79, 0 79.55, 0 65.09 M21.7 86.79 C7.23 86.79, 0 79.55, 0 65.09 M0 65.09 C0 55.23, 0 45.37, 0 21.7 M0 65.09 C0 49.64, 0 34.19, 0 21.7 M0 21.7 C0 7.23, 7.23 0, 21.7 0 M0 21.7 C0 7.23, 7.23 0, 21.7 0" stroke="#1e1e1e" stroke-width="2" fill="none"/></g><g transform="translate(987.386595368278 560.0842324819594) rotate(0 137.2900390625 11.5)"><text x="137.2900390625" y="0" font-family="Helvetica, Segoe UI Emoji" font-size="20px" fill="#1e1e1e" text-anchor="middle" style="white-space: pre;" direction="ltr" dominant-baseline="text-before-edge">decrement the number of disks</text></g><g stroke-linecap="round" transform="translate(966.066215622053 330.67595485738633) rotate(0 152.6251199857544 44.14157881940935)"><path d="M22.07 0 C116.12 0, 210.17 0, 283.18 0 M22.07 0 C123.37 0, 224.67 0, 283.18 0 M283.18 0 C297.89 0, 305.25 7.36, 305.25 22.07 M283.18 0 C297.89 0, 305.25 7.36, 305.25 22.07 M305.25 22.07 C305.25 38.02, 305.25 53.96, 305.25 66.21 M305.25 22.07 C305.25 31.89, 305.25 41.7, 305.25 66.21 M305.25 66.21 C305.25 80.93, 297.89 88.28, 283.18 88.28 M305.25 66.21 C305.25 80.93, 297.89 88.28, 283.18 88.28 M283.18 88.28 C181.05 88.28, 78.93 88.28, 22.07 88.28 M283.18 88.28 C188.72 88.28, 94.25 88.28, 22.07 88.28 M22.07 88.28 C7.36 88.28, 0 80.93, 0 66.21 M22.07 88.28 C7.36 88.28, 0 80.93, 0 66.21 M0 66.21 C0 56.45, 0 46.7, 0 22.07 M0 66.21 C0 56.87, 0 47.52, 0 22.07 M0 22.07 C0 7.36, 7.36 0, 22.07 0 M0 22.07 C0 7.36, 7.36 0, 22.07 0" stroke="#1e1e1e" stroke-width="2" fill="none"/></g><g transform="translate(996.4061793578074 351.8175336767957) rotate(0 122.28515625 23)"><text x="122.28515625" y="0" font-family="Helvetica, Segoe UI Emoji" font-size="20px" fill="#1e1e1e" text-anchor="middle" style="white-space: pre;" direction="ltr" dominant-baseline="text-before-edge">move the disk to the source</text><text x="122.28515625" y="23" font-family="Helvetica, Segoe UI Emoji" font-size="20px" fill="#1e1e1e" text-anchor="middle" style="white-space: pre;" direction="ltr" dominant-baseline="text-before-edge">column</text></g><g stroke-linecap="round"><g transform="translate(440.8562439063686 634.4298701231523) rotate(0 -0.7481623528713328 50.87503999525143)"><path d="M0 0 C-0.25 16.96, -1.25 84.79, -1.5 101.75 M0 0 C-0.25 16.96, -1.25 84.79, -1.5 101.75" stroke="#1e1e1e" stroke-width="2" fill="none"/></g><g transform="translate(440.8562439063686 634.4298701231523) rotate(0 -0.7481623528713328 50.87503999525143)"><path d="M-9.7 78.13 C-7.36 84.87, -5.02 91.6, -1.5 101.75 M-9.7 78.13 C-6.95 86.06, -4.19 93.99, -1.5 101.75" stroke="#1e1e1e" stroke-width="2" fill="none"/></g><g transform="translate(440.8562439063686 634.4298701231523) rotate(0 -0.7481623528713328 50.87503999525143)"><path d="M7.4 78.39 C4.86 85.05, 2.33 91.71, -1.5 101.75 M7.4 78.39 C4.41 86.23, 1.43 94.07, -1.5 101.75" stroke="#1e1e1e" stroke-width="2" fill="none"/></g></g><mask/><g stroke-linecap="round"><g transform="translate(608.4446109495499 782.5660159916787) rotate(0 65.83828705267837 0)"><path d="M0 0 C21.95 0, 109.73 0, 131.68 0 M0 0 C21.95 0, 109.73 0, 131.68 0" stroke="#1e1e1e" stroke-width="2" fill="none"/></g><g transform="translate(608.4446109495499 782.5660159916787) rotate(0 65.83828705267837 0)"><path d="M108.18 8.55 C113.21 6.72, 118.24 4.89, 131.68 0 M108.18 8.55 C115.66 5.83, 123.13 3.11, 131.68 0" stroke="#1e1e1e" stroke-width="2" fill="none"/></g><g transform="translate(608.4446109495499 782.5660159916787) rotate(0 65.83828705267837 0)"><path d="M108.18 -8.55 C113.21 -6.72, 118.24 -4.89, 131.68 0 M108.18 -8.55 C115.66 -5.83, 123.13 -3.11, 131.68 0" stroke="#1e1e1e" stroke-width="2" fill="none"/></g></g><mask/><g mask="url(#mask-Xy-s4pXI1ogGKG52BId88)" stroke-linecap="round"><g transform="translate(922.0633082098245 782.4840397617579) rotate(0 97.56585134612007 -80.7605459951449)"><path d="M0 0 C29.53 -2.73, 144.65 10.54, 177.18 -16.38 C209.7 -43.3, 192.14 -137.33, 195.13 -161.52 M0 0 C29.53 -2.73, 144.65 10.54, 177.18 -16.38 C209.7 -43.3, 192.14 -137.33, 195.13 -161.52" stroke="#1e1e1e" stroke-width="2" fill="none"/></g><g transform="translate(922.0633082098245 782.4840397617579) rotate(0 97.56585134612007 -80.7605459951449)"><path d="M204.28 -138.26 C200.88 -146.92, 197.47 -155.58, 195.13 -161.52 M204.28 -138.26 C201.8 -144.57, 199.32 -150.88, 195.13 -161.52" stroke="#1e1e1e" stroke-width="2" fill="none"/></g><g transform="translate(922.0633082098245 782.4840397617579) rotate(0 97.56585134612007 -80.7605459951449)"><path d="M187.19 -137.82 C190.14 -146.64, 193.1 -155.47, 195.13 -161.52 M187.19 -137.82 C189.34 -144.25, 191.5 -150.68, 195.13 -161.52" stroke="#1e1e1e" stroke-width="2" fill="none"/></g></g><mask id="mask-Xy-s4pXI1ogGKG52BId88"><rect x="0" y="0" fill="#fff" width="1217.1950109020647" height="1044.0051317520476"/><rect x="1082.9256378706525" y="754.6064442285091" fill="#000" width="32.626953125" height="23" opacity="1"/></mask><g transform="translate(1082.9256378706525 754.6064442285092) rotate(0 -62.2484566951679 -52.42187693178374)"><text x="16.3134765625" y="0" font-family="Helvetica, Segoe UI Emoji" font-size="20px" fill="#1e1e1e" text-anchor="middle" style="white-space: pre;" direction="ltr" dominant-baseline="text-before-edge">Yes</text></g><g stroke-linecap="round"><g transform="translate(1118.6913356078073 522.2055171924505) rotate(0 0.7481623528714181 -50.875039995251456)"><path d="M0 0 C0.25 -16.96, 1.25 -84.79, 1.5 -101.75 M0 0 C0.25 -16.96, 1.25 -84.79, 1.5 -101.75" stroke="#1e1e1e" stroke-width="2" fill="none"/></g><g transform="translate(1118.6913356078073 522.2055171924505) rotate(0 0.7481623528714181 -50.875039995251456)"><path d="M9.7 -78.13 C7.08 -85.69, 4.45 -93.25, 1.5 -101.75 M9.7 -78.13 C7.55 -84.34, 5.39 -90.54, 1.5 -101.75" stroke="#1e1e1e" stroke-width="2" fill="none"/></g><g transform="translate(1118.6913356078073 522.2055171924505) rotate(0 0.7481623528714181 -50.875039995251456)"><path d="M-7.4 -78.39 C-4.55 -85.86, -1.71 -93.34, 1.5 -101.75 M-7.4 -78.39 C-5.06 -84.52, -2.73 -90.66, 1.5 -101.75" stroke="#1e1e1e" stroke-width="2" fill="none"/></g></g><mask/><g stroke-linecap="round"><g transform="translate(961.577241504825 371.07672191243887) rotate(0 -214.73656212612005 -3.741055089305222)"><path d="M0 0 C-71.58 -1.25, -357.89 -6.24, -429.47 -7.48 M0 0 C-71.58 -1.25, -357.89 -6.24, -429.47 -7.48" stroke="#1e1e1e" stroke-width="2" fill="none"/></g><g transform="translate(961.577241504825 371.07672191243887) rotate(0 -214.73656212612005 -3.741055089305222)"><path d="M-405.84 -15.62 C-414.48 -12.65, -423.12 -9.67, -429.47 -7.48 M-405.84 -15.62 C-415.25 -12.38, -424.67 -9.14, -429.47 -7.48" stroke="#1e1e1e" stroke-width="2" fill="none"/></g><g transform="translate(961.577241504825 371.07672191243887) rotate(0 -214.73656212612005 -3.741055089305222)"><path d="M-406.13 1.48 C-414.67 -1.8, -423.2 -5.07, -429.47 -7.48 M-406.13 1.48 C-415.43 -2.09, -424.73 -5.66, -429.47 -7.48" stroke="#1e1e1e" stroke-width="2" fill="none"/></g></g><mask/><g mask="url(#mask-ZOd-Wwz2fnfKf4p9Tz0O8)" stroke-linecap="round"><g transform="translate(831.6398279938527 695.2420601129947) rotate(0 -169.20610969324488 -144.12677263136564)"><path d="M0 0 C-5.03 -19.86, 26.23 -71.13, -30.17 -119.17 C-86.57 -167.21, -287.04 -260.07, -338.41 -288.25 M0 0 C-5.03 -19.86, 26.23 -71.13, -30.17 -119.17 C-86.57 -167.21, -287.04 -260.07, -338.41 -288.25" stroke="#1e1e1e" stroke-width="2" fill="none"/></g><g transform="translate(831.6398279938527 695.2420601129947) rotate(0 -169.20610969324488 -144.12677263136564)"><path d="M-313.59 -285.25 C-319.98 -286.02, -326.37 -286.8, -338.41 -288.25 M-313.59 -285.25 C-321.22 -286.17, -328.86 -287.1, -338.41 -288.25" stroke="#1e1e1e" stroke-width="2" fill="none"/></g><g transform="translate(831.6398279938527 695.2420601129947) rotate(0 -169.20610969324488 -144.12677263136564)"><path d="M-321.33 -270 C-325.73 -274.7, -330.12 -279.39, -338.41 -288.25 M-321.33 -270 C-326.58 -275.61, -331.84 -281.22, -338.41 -288.25" stroke="#1e1e1e" stroke-width="2" fill="none"/></g></g><mask id="mask-ZOd-Wwz2fnfKf4p9Tz0O8"><rect x="0" y="0" fill="#fff" width="1270.0520473803424" height="1083.495605375726"/><rect x="788.6872948653571" y="564.5732065991875" fill="#000" width="25.56640625" height="23" opacity="1"/></mask><g transform="translate(788.687294865357 564.5732065991874) rotate(0 -124.16224064885947 -13.457919117558362)"><text x="12.783203125" y="0" font-family="Helvetica, Segoe UI Emoji" font-size="20px" fill="#1e1e1e" text-anchor="middle" style="white-space: pre;" direction="ltr" dominant-baseline="text-before-edge">No</text></g></svg>